<?xml version="1.0" encoding="UTF-8"?>
<svg viewBox="0 0 512 512" xmlns="http://www.w3.org/2000/svg">
 <path d="m512 400c0 26.51-21.49 48-48 48h-416c-26.51 0-48-21.49-48-48v-288c0-25.996 21.497-48 48-48 31.655 2.06e-4 -12.078 0 134.59 0 20.822-0.0455 50.21-0.35 73.413 0 23.198-0.354 52.601 0 73.413 0 146.65-0.31978 102.95-2.23e-4 134.59 0 26.001 0 48 21.996 48 48zm0-269c0 7.4027-3.3969 14.396-9.2 18.9-22.845 16.873-123.27 92.326-173.39 128.7-16.825 12.266-50.21 41.751-73.413 41.4-23.211 0.344-56.559-29.113-73.413-41.4-50.114-36.37-150.54-111.82-173.39-128.7-5.7981-4.6014-9.2-11.439-9.2-18.9v64.6c0-4.9987 5.6951-7.797 9.7-4.7 22.887 16.899 104.19 77.422 154.04 113.6 20.274 14.781 56.524 47.84 92.264 47.6 35.724 0.242 71.961-32.798 92.263-47.6 49.85-36.179 131.15-96.802 154.04-113.7 3.4698-2.5618 9.7-0.19987 9.7 4.7z" fill="currentColor"/>
</svg>
