<?xml version="1.0" encoding="UTF-8"?>
<svg viewBox="0 0 512 512" xmlns="http://www.w3.org/2000/svg">
 <path d="m512 464c0 26.51-21.49 48-48 48h-416c-26.51 0-48-21.49-48-48v-263.28a48 48 0 0 1 18.387-37.776c24.913-19.529 45.501-35.365 164.2-121.51 16.825-12.267 50.21-41.784 73.413-41.434 23.198-0.354 56.596 29.172 73.413 41.433 118.69 86.137 139.3 102 164.2 121.51a48 48 0 0 1 18.387 37.776zm-65.666-196.6c-2.563-3.728-7.7-4.595-11.339-1.907-22.845 16.873-55.462 40.705-105.58 77.079-16.825 12.266-50.21 41.781-73.413 41.43-23.211 0.344-56.559-29.143-73.413-41.43-50.114-36.37-82.734-60.204-105.58-77.079-3.639-2.688-8.776-1.821-11.339 1.907l-9.072 13.196a7.998 7.998 0 0 0 1.839 10.967c22.887 16.899 55.454 40.69 105.3 76.868 20.274 14.781 56.524 47.813 92.264 47.573 35.724 0.242 71.961-32.771 92.263-47.573 49.85-36.179 82.418-59.97 105.3-76.868a7.998 7.998 0 0 0 1.839-10.967z" fill="currentColor"/>
</svg>
