<svg
   viewBox="0 0 512 512">
  <path
     style="fill:currentColor"
     d="m 512,400 c 0,26.51 -21.49,48 -48,48 H 48 C 21.49,448 0,426.51 0,400 V 112 C 0,86.004091 21.496508,64 48,64 c 31.655006,2.06e-4 -12.077876,0 134.587,0 20.82205,-0.0455 50.21,-0.35 73.413,0 23.198,-0.354 52.6009,0 73.413,0 146.64953,-0.31978 102.95199,-2.23e-4 134.587,0 26.0006,0 48,21.996028 48,48 z m 0,-269 c 0,7.40268 -3.39694,14.39559 -9.2,18.9 C 479.955,166.773 379.533,242.226 329.413,278.6 312.588,290.866 279.203,320.351 256,320 232.789,320.344 199.441,290.887 182.587,278.6 132.473,242.23 32.048,166.775 9.2,149.9 3.4019215,145.29863 0,138.46131 0,131 v 64.6 c 0,-4.99868 5.6950557,-7.79698 9.7,-4.7 22.887,16.899 104.187,77.422 154.036,113.6 20.274,14.781 56.524,47.84 92.264,47.6 35.724,0.242 71.961,-32.798 92.263,-47.6 49.85,-36.179 131.152,-96.802 154.037,-113.7 3.46979,-2.56182 9.7,-0.19987 9.7,4.7 z" />
</svg>
