<svg
   viewBox="0 0 512 512">
  <path
     style="fill:currentColor"
     d="m 512,464 c 0,26.51 -21.49,48 -48,48 H 48 C 21.49,512 0,490.51 0,464 V 200.724 A 48,48 0 0 1 18.387,162.948 C 43.3,143.419 63.888,127.583 182.587,41.437 199.412,29.17 232.797,-0.347 256,0.003 c 23.198,-0.354 56.596,29.172 73.413,41.433 118.687,86.137 139.303,101.995 164.2,121.512 A 48,48 0 0 1 512,200.724 Z M 446.334,267.395 c -2.563,-3.728 -7.7,-4.595 -11.339,-1.907 -22.845,16.873 -55.462,40.705 -105.582,77.079 -16.825,12.266 -50.21,41.781 -73.413,41.43 -23.211,0.344 -56.559,-29.143 -73.413,-41.43 -50.114,-36.37 -82.734,-60.204 -105.582,-77.079 -3.639,-2.688 -8.776,-1.821 -11.339,1.907 l -9.072,13.196 a 7.998,7.998 0 0 0 1.839,10.967 c 22.887,16.899 55.454,40.69 105.303,76.868 20.274,14.781 56.524,47.813 92.264,47.573 35.724,0.242 71.961,-32.771 92.263,-47.573 49.85,-36.179 82.418,-59.97 105.303,-76.868 a 7.998,7.998 0 0 0 1.839,-10.967 z" />
</svg>
